/* XPM */
static char * wabbiticon_xpm[] = {
"16 16 5 1",
" 	c None",
".	c #181818",
"+	c #D6D6D6",
"@	c #FFFFFF",
"#	c #737373",
"                ",
"       ..       ",
"      .+@.      ",
"       .#@.     ",
"     ....#@.    ",
"    .+@@+.#@.   ",
"   .+@@@@@@@+.  ",
" ..+@@@@@@@@@+. ",
".@@@@@@@@@@@.@+.",
".@+@@@@@@@@@.@+.",
" .+@@@@+@@@@++#.",
"  .+@@+..+@@@+. ",
"   .+@@@+.@+..  ",
"    .........   ",
"                ",
"                "};
